# xmcd CD database file
#
# Track frame offsets:
#	150
#	35405
#	52770
#	84315
#	113650
#	154815
#	175148
#	203483
#	234228
#	269580
#	307263
#
# Disc length: 4389 seconds
#
# Revision: 0
# Processed by: cddbd v1.4PL0 Copyright (c) Steve Scherf et al.
# Submitted via: CDex 1.50
#
DISCID=8411230b
DTITLE=Cal Tjader - Here and There
DYEAR=1977
DGENRE=Jazz
TTITLE0=Guarabe
TTITLE1=Where Is Love
TTITLE2=This Masquerade
TTITLE3=Reza
TTITLE4=Black Orchid
TTITLE5=El Muchacho
TTITLE6=Tu Crees Que
TTITLE7=Liz-Anne
TTITLE8=Morning
TTITLE9=Here
TTITLE10=If
EXTD=YEAR: 1977
EXTT0=
EXTT1=
EXTT2=
EXTT3=
EXTT4=
EXTT5=
EXTT6=
EXTT7=
EXTT8=
EXTT9=
EXTT10=
PLAYORDER=
